<mxfile host="app.diagrams.net" modified="2023-08-27T05:41:57.739Z" agent="Mozilla/5.0 (Windows NT 10.0; Win64; x64) AppleWebKit/537.36 (KHTML, like Gecko) Chrome/114.0.0.0 Safari/537.36 OPR/100.0.0.0 (Edition std-1)" version="21.6.9" etag="_ZWBwc9aS7zBAqne48C_" type="github">
  <diagram name="PÃ¡gina-1" id="wDxG5o-N81VBUXbGrfWw">
    <mxGraphModel>
      <root>
        <mxCell id="0" />
        <mxCell id="1" parent="0" />
      </root>
    </mxGraphModel>
  </diagram>
</mxfile>
